<svg xmlns="http://www.w3.org/2000/svg" width="50" height="54.553" viewBox="0 0 50 54.553">
  <path id="fi-rr-bookmark" d="M44.493,54.545a6.364,6.364,0,0,1-4.516-1.9L26,38.752l-13.977,13.9A6.364,6.364,0,0,1,4.989,54.04,6.364,6.364,0,0,1,1,48.077V11.363A11.364,11.364,0,0,1,12.364,0H39.636A11.363,11.363,0,0,1,51,11.363V48.077A6.364,6.364,0,0,1,47.02,54.04,6.516,6.516,0,0,1,44.493,54.545Zm-32.129-50a6.818,6.818,0,0,0-6.818,6.818V48.077A1.916,1.916,0,0,0,8.811,49.44h0l15.6-15.5a2.273,2.273,0,0,1,3.2,0l15.579,15.5a1.916,1.916,0,0,0,3.266-1.364V11.363a6.818,6.818,0,0,0-6.818-6.818Z" transform="translate(-1)" fill="#fff"/>
</svg>
