<svg xmlns="http://www.w3.org/2000/svg" width="50" height="49.939" viewBox="0 0 50 49.939">
  <path id="fi-rr-paint-brush" d="M48.136,1.839a6.541,6.541,0,0,0-9.023,0L15.76,25.177a11.561,11.561,0,0,0-2.2-.208,11.371,11.371,0,0,0-8.1,3.353C2.643,31.14.655,38.7.066,42.811a6.251,6.251,0,0,0,6.187,7.162,6.459,6.459,0,0,0,.915-.065c4.107-.59,11.669-2.578,14.49-5.395a11.448,11.448,0,0,0,3.126-10.3L48.136,10.861a6.393,6.393,0,0,0,0-9.023ZM18.707,41.567c-1.511,1.511-7.293,3.519-12.136,4.215a2.115,2.115,0,0,1-1.79-.59,2.084,2.084,0,0,1-.588-1.79C4.887,38.563,6.9,32.776,8.407,31.267a7.293,7.293,0,0,1,10.3,10.3ZM45.193,7.915,23.062,30.048a11.206,11.206,0,0,0-3.126-3.142L42.059,4.781a2.263,2.263,0,0,1,3.126,0,2.213,2.213,0,0,1,.008,3.134Z" transform="translate(0.001 -0.034)" fill="#fff"/>
</svg>
